<svg xmlns="http://www.w3.org/2000/svg" viewBox="0 0 420 760">
  <defs>
    <linearGradient id="skin" x1="0" x2="1"><stop stop-color="#c89462"/><stop offset="1" stop-color="#8f5b37"/></linearGradient>
    <linearGradient id="fabric" x1="0" x2="1"><stop stop-color="#716647"/><stop offset=".45" stop-color="#9b8f61"/><stop offset="1" stop-color="#4c5134"/></linearGradient>
    <linearGradient id="armor" x1="0" x2="1"><stop stop-color="#30372f"/><stop offset="1" stop-color="#6d674d"/></linearGradient>
    <filter id="shadow" x="-20%" y="-20%" width="140%" height="140%"><feDropShadow dx="0" dy="8" stdDeviation="6" flood-color="#000" flood-opacity=".45"/></filter>
  </defs>
  <ellipse cx="210" cy="725" rx="112" ry="20" fill="#000" opacity=".28"/>
  <g filter="url(#shadow)">
    <path d="M137 317c-37 46-58 107-65 183l54 10c11-60 28-107 59-145z" fill="url(#fabric)"/>
    <path d="M281 320c41 43 64 105 72 181l-54 11c-12-61-31-107-62-147z" fill="url(#fabric)"/>
    <path d="M156 512h53l-13 184h-54z" fill="url(#fabric)"/>
    <path d="M217 512h54l19 184h-55z" fill="url(#fabric)"/>
    <path d="M135 692h76v30h-86c-7-11-3-22 10-30zM230 692h76v30h-86c-7-10-3-22 10-30z" fill="#2b281f"/>
    <path d="M122 244c11-68 53-110 88-110 45 0 85 42 94 110l-33 278H148z" fill="url(#fabric)"/>
    <path d="M151 234h119c31 76 30 155 9 239H143c-19-77-21-157 8-239z" fill="url(#armor)"/>
    <path d="M150 261h121v30H150zM153 315h116v30H153zM159 367h105v32H159z" fill="#2e3528" opacity=".72"/>
    <path d="M181 135c0-44 23-72 55-72s57 29 57 72c0 38-21 68-55 68-36 0-57-30-57-68z" fill="url(#skin)"/>
    <path d="M170 115c4-48 32-82 70-82 45 0 75 34 80 82-42-18-94-19-150 0z" fill="#6d664d"/>
    <path d="M169 116c45-18 94-17 151 2l-14 34c-47-13-86-12-123 1z" fill="#3a3e32"/>
    <path d="M199 127c26-11 58-10 78 1-2 21-17 38-39 38-21 0-36-16-39-39z" fill="#1e211c" opacity=".38"/>
    <path d="M280 158c22 1 40 15 44 34l-25 16c-11-18-21-31-35-38zM178 158c-21 2-40 16-44 35l25 16c12-19 22-31 35-39z" fill="#403f35"/>
    <path d="M107 282c38-39 83-64 142-78l12 42c-57 17-98 43-126 75z" fill="url(#fabric)"/>
    <path d="M306 282c-47-33-92-52-143-61l-7 43c52 13 93 34 124 64z" fill="url(#fabric)"/>
    <path d="M94 306l212-73 13 39-211 75z" fill="#191b18"/>
    <path d="M302 222l83-27 10 33-84 29z" fill="#111"/>
    <path d="M82 310h50v48H82z" fill="#242720"/>
    <circle cx="331" cy="224" r="18" fill="#222"/>
    <circle cx="331" cy="224" r="10" fill="#080808"/>
    <path d="M158 430h40v78h-40zM220 430h40v78h-40z" fill="#56523d"/>
    <path d="M129 286l38 54-23 20-43-47zM289 288l-42 52 21 23 47-46z" fill="#35392e" opacity=".8"/>
    <g fill="#3f4b31" opacity=".9">
      <path d="M170 236l23 16-18 18-24-14zM211 238l25 14-17 19-24-15zM253 244l27 14-19 19-24-16z"/>
      <path d="M151 309l24 15-18 18-24-14zM199 314l27 14-19 19-25-15zM244 314l26 14-18 19-25-15z"/>
      <path d="M166 383l25 14-18 19-25-15zM218 384l28 15-20 18-26-15z"/>
    </g>
  </g>
</svg>
